<svg width="26" height="26" viewBox="0 0 26 26" fill="none" xmlns="http://www.w3.org/2000/svg">
<g clip-path="url(#clip0_201_2533)">
<path d="M16.2503 1.08331H4.33366C3.14199 1.08331 2.16699 2.05831 2.16699 3.24998V17.3333C2.16699 17.9291 2.65449 18.4166 3.25033 18.4166C3.84616 18.4166 4.33366 17.9291 4.33366 17.3333V4.33331C4.33366 3.73748 4.82116 3.24998 5.41699 3.24998H16.2503C16.8462 3.24998 17.3337 2.76248 17.3337 2.16665C17.3337 1.57081 16.8462 1.08331 16.2503 1.08331ZM16.8895 6.05581L22.122 11.2883C22.5228 11.6891 22.7503 12.2416 22.7503 12.8158V22.75C22.7503 23.9417 21.7753 24.9166 20.5837 24.9166H8.65616C7.46449 24.9166 6.50033 23.9417 6.50033 22.75L6.51116 7.58331C6.51116 6.39165 7.47533 5.41665 8.66699 5.41665H15.3512C15.9253 5.41665 16.4778 5.64415 16.8895 6.05581ZM16.2503 13H21.1253L15.167 7.04165V11.9166C15.167 12.5125 15.6545 13 16.2503 13Z" fill="#4318FF"/>
</g>
<defs>
<clipPath id="clip0_201_2533">
<rect width="26" height="26" fill="white"/>
</clipPath>
</defs>
</svg>
