<svg width="34" height="34" viewBox="0 0 34 34" fill="none" xmlns="http://www.w3.org/2000/svg">
<g id="Icon" clip-path="url(#clip0_201_2515)">
<path id="Vector" d="M16.6734 15.6398C13.5672 14.8325 12.5682 13.9978 12.5682 12.6978C12.5682 11.2062 13.9503 10.1662 16.2629 10.1662C18.206 10.1662 19.1776 10.9052 19.5334 12.082C19.6976 12.6294 20.1492 13.0399 20.7239 13.0399H21.1344C22.0376 13.0399 22.6807 12.1504 22.366 11.302C21.7913 9.6873 20.4502 8.34626 18.3155 7.82627V6.88207C18.3155 5.7463 17.3987 4.82947 16.2629 4.82947C15.1271 4.82947 14.2103 5.7463 14.2103 6.88207V7.78522C11.5556 8.35995 9.4209 10.0841 9.4209 12.7252C9.4209 15.8862 12.0345 17.4598 15.8524 18.3767C19.2734 19.1977 19.9576 20.4019 19.9576 21.6745C19.9576 22.6187 19.2871 24.1239 16.2629 24.1239C14.005 24.1239 12.8419 23.3166 12.3903 22.1671C12.1851 21.6335 11.7198 21.2503 11.1588 21.2503H10.7756C9.85879 21.2503 9.21564 22.1808 9.55774 23.0292C10.3377 24.9313 12.1577 26.0534 14.2103 26.4913V27.4081C14.2103 28.5439 15.1271 29.4607 16.2629 29.4607C17.3987 29.4607 18.3155 28.5439 18.3155 27.4081V26.5187C20.9839 26.0123 23.1049 24.466 23.1049 21.6608C23.1049 17.7746 19.7797 16.4472 16.6734 15.6398Z" fill="#4318FF"/>
</g>
<defs>
<clipPath id="clip0_201_2515">
<rect width="32.8417" height="32.8417" fill="white" transform="translate(0.526367 0.724243)"/>
</clipPath>
</defs>
</svg>
