<svg width="34" height="34" viewBox="0 0 34 34" fill="none" xmlns="http://www.w3.org/2000/svg">
<g id="Icon" clip-path="url(#clip0_201_2503)">
<path id="Vector" d="M9.28393 13.3136H9.55761C10.6113 13.3136 11.4734 14.1757 11.4734 15.2293V24.8082C11.4734 25.8618 10.6113 26.7239 9.55761 26.7239H9.28393C8.23026 26.7239 7.36816 25.8618 7.36816 24.8082V15.2293C7.36816 14.1757 8.23026 13.3136 9.28393 13.3136ZM16.947 7.56628C18.0007 7.56628 18.8627 8.42838 18.8627 9.48205V24.8082C18.8627 25.8618 18.0007 26.7239 16.947 26.7239C15.8933 26.7239 15.0312 25.8618 15.0312 24.8082V9.48205C15.0312 8.42838 15.8933 7.56628 16.947 7.56628ZM24.61 18.5135C25.6637 18.5135 26.5258 19.3756 26.5258 20.4293V24.8082C26.5258 25.8618 25.6637 26.7239 24.61 26.7239C23.5564 26.7239 22.6943 25.8618 22.6943 24.8082V20.4293C22.6943 19.3756 23.5564 18.5135 24.61 18.5135Z" fill="#4318FF"/>
</g>
<defs>
<clipPath id="clip0_201_2503">
<rect width="32.8417" height="32.8417" fill="white" transform="translate(0.526367 0.724243)"/>
</clipPath>
</defs>
</svg>
